<svg width="500" height="500" viewBox="0 0 500 500" fill="none" xmlns="http://www.w3.org/2000/svg">
<path d="M314.953 48.1851C312.894 50.0246 312.715 53.1854 314.555 55.2449C316.394 57.3044 319.555 57.4828 321.615 55.6432L314.953 48.1851ZM329.824 18.9305L333.48 15.5196L333.48 15.5196L329.824 18.9305ZM136.94 140.97L131.95 140.666L131.94 140.818L131.94 140.97L136.94 140.97ZM457.589 222.604L462.51 221.719L462.475 221.525L462.425 221.335L457.589 222.604ZM48.7415 419.682L45.3475 423.353L45.4626 423.46L45.5841 423.559L48.7415 419.682ZM254.814 187.972L257.251 192.337L257.409 192.249L257.559 192.151L254.814 187.972ZM479.021 94.7928L479.287 89.7999L479.154 89.7928H479.021V94.7928ZM19.0672 489C21.8286 489 24.0672 486.761 24.0672 484C24.0672 481.239 21.8286 479 19.0672 479V489ZM12.9061 480.353L10.073 476.233L12.9061 480.353ZM13.4496 483.388L12.3808 488.272L13.4496 483.388ZM321.615 55.6432C325.748 51.9514 331.42 45.6939 334.873 38.7936C338.242 32.0594 340.299 22.8282 333.48 15.5196L326.168 22.3414C328.581 24.9279 328.715 28.7528 325.93 34.3187C323.228 39.7186 318.513 45.0053 314.953 48.1851L321.615 55.6432ZM333.48 15.5196C331.429 13.3216 328.63 12.1909 325.888 11.6095C323.099 11.0181 319.891 10.8919 316.459 11.082C309.587 11.4626 301.057 13.1598 291.594 15.8547C272.619 21.2583 249.104 30.9032 226.077 43.2284C203.062 55.5477 180.293 70.6735 162.941 87.1396C145.745 103.459 133.098 121.826 131.95 140.666L141.931 141.274C142.844 126.305 153.174 110.194 169.825 94.3934C186.321 78.7391 208.27 64.1025 230.796 52.0449C253.312 39.9932 276.163 30.6467 294.332 25.4723C303.442 22.8783 311.178 21.3899 317.012 21.0667C319.933 20.9049 322.187 21.0472 323.813 21.392C325.487 21.7469 326.055 22.2203 326.168 22.3415L333.48 15.5196ZM131.94 140.97C131.94 151.59 138.157 159.186 147.371 164.417C156.401 169.544 168.903 172.807 183.268 175.017C212.056 179.447 250.552 179.936 289.102 180.91C327.921 181.891 366.887 183.362 397.449 189.586C412.724 192.696 425.546 196.93 435.086 202.652C444.556 208.332 450.498 215.285 452.753 223.874L462.425 221.335C459.322 209.515 451.226 200.672 440.23 194.076C429.305 187.523 415.234 183.002 399.444 179.787C367.874 173.358 328.018 171.891 289.354 170.914C250.42 169.929 212.773 169.439 184.788 165.134C170.767 162.976 159.725 159.932 152.308 155.721C145.075 151.614 141.94 146.841 141.94 140.97L131.94 140.97ZM452.668 223.49C454.172 231.848 450.938 241.977 442.525 253.714C434.179 265.358 421.234 277.872 404.803 290.685C371.973 316.287 326.049 342.454 277.735 364.706C229.436 386.95 179.02 405.156 137.302 414.946C116.427 419.845 97.9119 422.593 83.0172 422.751C67.8726 422.911 57.5077 420.373 51.899 415.805L45.5841 423.559C54.0399 430.445 67.4637 432.916 83.123 432.75C99.0321 432.582 118.336 429.669 139.587 424.682C182.12 414.7 233.182 396.234 281.918 373.789C330.638 351.351 377.304 324.811 410.952 298.571C427.76 285.464 441.526 272.273 450.653 259.539C459.713 246.898 464.715 233.975 462.51 221.719L452.668 223.49ZM52.1355 416.01C50.1439 414.169 48.8102 411.052 48.9577 405.885C49.1063 400.685 50.7666 393.971 54.1257 385.908C60.8289 369.82 73.8146 349.497 92.2451 327.259C129.06 282.84 186.913 231.61 257.251 192.337L252.376 183.606C180.937 223.494 122.133 275.528 84.5458 320.878C65.7752 343.526 52.1236 364.713 44.8949 382.062C41.2881 390.719 39.1588 398.705 38.9618 405.6C38.7639 412.527 40.5287 418.899 45.3475 423.353L52.1355 416.01ZM257.559 192.151C280.244 177.25 318.204 154.087 359.336 134.669C400.64 115.169 444.436 99.7928 479.021 99.7928V89.7928C442.084 89.7928 396.582 106.026 355.066 125.626C313.377 145.307 274.995 168.733 252.069 183.793L257.559 192.151ZM478.755 99.7858C483.245 100.025 484.602 101.114 484.902 101.491C485.015 101.633 485.645 102.514 484.592 105.604C483.563 108.627 481.245 112.676 477.427 117.757C473.653 122.778 468.609 128.552 462.39 135.006C437.454 160.883 394.756 196.538 343.434 236.32C240.894 315.802 104.823 411.077 10.073 476.233L15.7392 484.473C110.504 419.306 246.778 323.894 349.561 244.223C400.9 204.428 444.107 168.391 469.59 141.945C475.976 135.319 481.318 129.224 485.421 123.765C489.478 118.366 492.526 113.326 494.058 108.829C495.567 104.399 495.956 99.3295 492.732 95.2708C489.694 91.4468 484.618 90.0839 479.287 89.7999L478.755 99.7858ZM12.3808 488.272C14.1722 488.664 16.4622 489 19.0672 489V479C17.3116 479 15.748 478.772 14.5185 478.503L12.3808 488.272ZM10.073 476.233C7.88059 477.741 6.73551 480.329 7.19186 482.939C7.65607 485.594 9.68069 487.681 12.3808 488.272L14.5185 478.503C15.6842 478.758 16.7899 479.773 17.0424 481.217C17.2871 482.616 16.6374 483.855 15.7392 484.473L10.073 476.233Z" fill="black"/>
</svg>
